# xmcd
#
# Track frame offsets: 
#        150
#        13081
#        27045
#        38867
#        56238
#        70560
#        84772
#        99997
#        115589
#        131667
#        145289
#
# Disc length: 2175 seconds
#
# Revision: 0
# Processed by: cddbd v1.5.2PL0 Copyright (c) Steve Scherf et al.
# Submitted via: ExactAudioCopy v1.0b4
#
DISCID=86087d0b
DTITLE=Cowboy Envy - Unhitched
DYEAR=1900
DGENRE=
TTITLE0=Whoopie Ti-Yi-Yu - Get Along Little Dogies
TTITLE1=Vim Vit And Vigor
TTITLE2=Arizona Sky
TTITLE3=Goin' Back To Texas
TTITLE4=Pigtails And Ponies
TTITLE5=There's A Bridle Hangin' On The Wall
TTITLE6=Way Out There
TTITLE7=Under The Stars
TTITLE8=William Tell Overture (Part 2)
TTITLE9=O Bury Me Not On The Lone Prairie
TTITLE10=Till My Wild Blue Yonder's No Longer Blue
EXTD=
EXTT0=
EXTT1=
EXTT2=
EXTT3=
EXTT4=
EXTT5=
EXTT6=
EXTT7=
EXTT8=
EXTT9=
EXTT10=
PLAYORDER=
